<svg class="jora-logo home" viewBox="0 0 109.95 58.88" xmlns="http://www.w3.org/2000/svg">
<path class="underline" d="M4.56,53.41Q1,53.41,1,55.89t3.56,2.49H106.25q3.7,0,3.7-2.49t-3.7-2.48Z" style="fill-rule:evenodd" transform="translate(-0.5 0)"></path>
<path class="text" d="M82.36,17.69q.31-8.13,12.34-8.63c12-.51,12.55,5.58,13.11,8.63a40.49,40.49,0,0,1,0,9.63c-.26,3.94-.71,6.54-1.36,7.78a13,13,0,0,1-4.24,4.31c-1.22.75-4,2-9.41,2-3.63,0-6.38-.81-8.27-2.43Q82,36.67,81.62,31.76c-.23-3.27.74-5.69,2.91-7.24a22.54,22.54,0,0,1,5.08-2.15q2.67-.77,7.6-1.85a4.24,4.24,0,0,0,2.52-1.06,2,2,0,0,0,.35-1.77c-.68-1.46-2.33-2.18-4.94-2.18s-4.24.72-4.87,2.18Zm17.85,7.65L95.48,26.9a28.52,28.52,0,0,0-2.85.74,5.27,5.27,0,0,0-2.89,1.74,3.56,3.56,0,0,0,0,4.2c.79,1.27,2.71,1.68,5.74,1.22A6.36,6.36,0,0,0,99.26,32C100.21,30.59,100.53,28.37,100.21,25.34Z" style="fill-rule:evenodd" transform="translate(-0.5 0)"></path>
<path class="text" d="M79.8,9.48v8.37H76.22a5.65,5.65,0,0,0-4.11,1.55,6,6,0,0,0-1.7,4.21V40.72H62V23.91q.61-7.32,5.12-10.88T79.8,9.48Z" style="fill-rule:evenodd" transform="translate(-0.5 0)"></path>
<path class="text" d="M34.58,37.39q-3.59-4.66-3.94-12a16.71,16.71,0,0,1,3.94-12.28A13.93,13.93,0,0,1,45,9.06a13.93,13.93,0,0,1,10.41,4q4,4.39,4,12.28t-4,12q-3.61,4.05-10.41,4T34.58,37.39ZM45,15.89q-6.41,0-6.41,9.36T45,34.8q6.46-.57,6.47-9.46T45,15.89Z" style="fill-rule:evenodd" transform="translate(-0.5 0)"></path>
<path class="text" d="M28.19,0h-4A3.61,3.61,0,0,0,21.4,1.07a3.93,3.93,0,0,0-1.55,3.4v26c-.37,2.83-2,4.25-4.84,4.25s-4.4-1.42-4.61-4.25V25.36H2.59v5.91c0,2.49.09,10.05,12.42,9.76s13.18-7.22,13.18-9.76Z" style="fill-rule:evenodd" transform="translate(-0.5 0)"></path>
</svg>